<svg xmlns="http://www.w3.org/2000/svg" viewBox="0 0 500 500" xmlns:v="https://vecta.io/nano"><path d="M117.435 420.055h272.814l-7.094-14.982-25.414-25.55-48.718-17.063-36.567-4.631-10.182-140.171 71.826-4.628 10.543-49.743-86.243 4.119-5.971-82.483L181.745 95.1l6.232 36.263 22.567 8.237-20.177 4.426 5.607 31.8-91.222 8.439 14.143 49.88 84.772-7.178L218.124 337.6c-9.361-15.434-13.994-23.942-17.794-35.64 0 0-4.491 17.016 4.427 42.945-7.05-3.04-17.62-5.217-33.4-4.356 0 0 22.672 11.086 32.716 24.636l-59.183 15.476z"/></svg>